HIERARCHY
ROOT Hips
{
  OFFSET 50.9792 86.854 5.77114
  CHANNELS 6 Xposition Yposition Zposition Zrotation Xrotation Yrotation
  JOINT spine
  {
    OFFSET 0 6.84637 0.3937
    CHANNELS 3 Zrotation Xrotation Yrotation
    JOINT spine1
    {
      OFFSET 0 9.49621 0
      CHANNELS 3 Zrotation Xrotation Yrotation
      JOINT spine2
      {
        OFFSET 0 9.09909 0
        CHANNELS 3 Zrotation Xrotation Yrotation
        JOINT Neck
        {
          OFFSET 0 23.3612 1.11378
          CHANNELS 3 Zrotation Xrotation Yrotation
          JOINT Head
          {
            OFFSET 0 7.05802 0
            CHANNELS 3 Zrotation Xrotation Yrotation
            End Site
            {
              OFFSET 0 17.0844 -5.63419
            }
          }
        }
        JOINT RightShoulder
        {
          OFFSET -3.83136 9.82631 -0.533491
          CHANNELS 3 Zrotation Xrotation Yrotation
          JOINT RightArm
          {
            OFFSET 0 12.8881 0
            CHANNELS 3 Zrotation Xrotation Yrotation
            JOINT RightArmRoll
            {
              OFFSET 0 6.50617 0
              CHANNELS 3 Zrotation Xrotation Yrotation
              JOINT RightForeArm
              {
                OFFSET 0 18.9501 0
                CHANNELS 3 Zrotation Xrotation Yrotation
                JOINT RightForeArmRoll
                {
                  OFFSET 0 7.30092 0
                  CHANNELS 3 Zrotation Xrotation Yrotation
                  JOINT RightHand
                  {
                    OFFSET 0 14.6514 0
                    CHANNELS 3 Zrotation Xrotation Yrotation
                    End Site
                    {
                      OFFSET 0 0 0
                    }
                  }
                }
              }
            }
          }
        }
        JOINT LeftShoulder
        {
          OFFSET 3.83136 9.82631 -0.533491
          CHANNELS 3 Zrotation Xrotation Yrotation
          JOINT LeftArm
          {
            OFFSET 0 12.8881 0
            CHANNELS 3 Zrotation Xrotation Yrotation
            JOINT LeftArmRoll
            {
              OFFSET 0 6.50617 0
              CHANNELS 3 Zrotation Xrotation Yrotation
              JOINT LeftForeArm
              {
                OFFSET 0 18.9501 0
                CHANNELS 3 Zrotation Xrotation Yrotation
                JOINT LeftForeArmRoll
                {
                  OFFSET 0 7.30093 0
                  CHANNELS 3 Zrotation Xrotation Yrotation
                  JOINT LeftHand
                  {
                    OFFSET 0 14.6514 0
                    CHANNELS 3 Zrotation Xrotation Yrotation
                    End Site
                    {
                      OFFSET 0 0 0
                    }
                  }
                }
              }
            }
          }
        }
      }
    }
  }
  JOINT RightUpLeg
  {
    OFFSET -6.06837 -1.11278 -0.933477
    CHANNELS 3 Zrotation Xrotation Yrotation
    JOINT RightUpLegRoll
    {
      OFFSET 0 17.1796 0
      CHANNELS 3 Zrotation Xrotation Yrotation
      JOINT RightLeg
      {
        OFFSET 0 -21.2743 0
        CHANNELS 3 Zrotation Xrotation Yrotation
        JOINT RightLegRoll
        {
          OFFSET 0 21.3439 0
          CHANNELS 3 Zrotation Xrotation Yrotation
          JOINT RightFoot
          {
            OFFSET 0 17.7652 0
            CHANNELS 3 Zrotation Xrotation Yrotation
            JOINT RightToeBase
            {
              OFFSET 0 14.8508 0
              CHANNELS 3 Zrotation Xrotation Yrotation
              End Site
              {
                OFFSET 0.0062947 7.19213 -0.829005
              }
            }
          }
        }
      }
    }
  }
  JOINT LeftUpLeg
  {
    OFFSET 6.06837 -1.11278 -0.933477
    CHANNELS 3 Zrotation Xrotation Yrotation
    JOINT LeftUpLegRoll
    {
      OFFSET 0 17.1797 0
      CHANNELS 3 Zrotation Xrotation Yrotation
      JOINT LeftLeg
      {
        OFFSET 0 21.2742 0
        CHANNELS 3 Zrotation Xrotation Yrotation
        JOINT LeftLegRoll
        {
          OFFSET 0 21.5412 0
          CHANNELS 3 Zrotation Xrotation Yrotation
          JOINT LeftFoot
          {
            OFFSET 0 17.5679 0
            CHANNELS 3 Zrotation Xrotation Yrotation
            JOINT LeftToeBase
            {
              OFFSET 0 14.8508 0
              CHANNELS 3 Zrotation Xrotation Yrotation
              End Site
              {
                OFFSET -0.0282102 7.19214 -0.829004
              }
            }
          }
        }
      }
    }
  }
}
MOTION
Frames: 13
Frame Time: 0.00208333
52.3443 86.5724 3.78476 0.36301 -2.10549 -2.29023 1.37849 -1.55954 1.03519 2.77956 0.905964 1.92806 2.75813 2.54954 1.88241 -22.1061 11.9888 -1.74186 19.5006 10.8553 -8.4472 49.2591 -5.72526 -2.9583 109.364 28.8952 5.43647 9.38627e-007 -4.54255e-007 -1.64869e-006 19.7562 0.149227 -0.26184 -1.08465e-006 -1.71403e-006 -3.06808 8.02935 -4.95144 0.697679 -75.37 -8.22292 5.47224 -93.4679 26.264 -23.0554 -1.14343e-005 6.88378e-007 -3.61443e-007 -17.6512 0.132388 -0.536321 6.00043e-006 3.84188e-006 3.02485 -8.02916 -4.95144 -0.697682 178.074 14.7511 -1.04657 180 7.01532e-015 178.86 176.006 24.1543 -179.673 -2.2066e-006 -3.05657e-006 0.561315 -22.2915 70.6055 22.0817 8.13649 25.2327 -3.48773 -179.23 11.8658 0.873745 4.54188e-006 -4.6773e-006 -1.09431 -1.68364 -25.2823 0.389737 -6.43784e-007 7.63522e-007 -0.690079 24.9747 74.3412 -26.8247 -8.13649 25.2327 3.48774 
52.337 86.5811 3.79113 0.363793 -2.1168 -2.30065 1.37909 -1.55721 1.03689 2.78134 0.910679 1.93133 2.75987 2.55425 1.88565 -22.0989 11.9844 -1.74667 19.4967 10.8473 -8.44763 49.2556 -5.73263 -2.96362 109.382 28.8616 5.32782 9.38627e-007 -4.54255e-007 -1.64869e-006 19.7949 0.149376 -0.230778 -1.08465e-006 -1.71403e-006 -3.0662 8.02935 -4.95144 0.697679 -75.3639 -8.21861 5.47019 -93.4798 26.2563 -23.0306 -1.14343e-005 6.88378e-007 -3.61443e-007 -17.6688 0.132375 -0.540496 6.00043e-006 3.84188e-006 3.02469 -8.02916 -4.95144 -0.697682 178.074 14.7411 -1.05053 180 7.01532e-015 178.86 176.013 24.1582 -179.676 -2.2066e-006 -3.05657e-006 0.561313 -22.2883 70.608 22.0846 8.13649 25.2327 -3.48773 -179.229 11.8457 0.869585 4.54188e-006 -4.6773e-006 -1.09431 -1.68548 -25.2773 0.389035 -6.43784e-007 7.63522e-007 -0.690079 24.9809 74.3448 -26.8305 -8.13649 25.2327 3.48774 
52.3405 86.5744 3.79272 0.364538 -2.12851 -2.3112 1.3797 -1.55479 1.03866 2.7832 0.915571 1.93474 2.7617 2.55914 1.88902 -22.0917 11.9801 -1.75164 19.4926 10.8391 -8.44815 49.2521 -5.74026 -2.96912 109.4 28.8276 5.22004 9.38627e-007 -4.54255e-007 -1.64869e-006 19.8338 0.149522 -0.199995 -1.08465e-006 -1.71403e-006 -3.06432 8.02935 -4.95144 0.697679 -75.3576 -8.21417 5.46808 -93.4919 26.2482 -23.0051 -1.14343e-005 6.88378e-007 -3.61443e-007 -17.6869 0.13236 -0.544791 6.00043e-006 3.84188e-006 3.02452 -8.02916 -4.95144 -0.697682 178.074 14.7309 -1.05467 180 7.01532e-015 178.86 176.02 24.1625 -179.679 -2.2066e-006 -3.05657e-006 0.56131 -22.2851 70.6108 22.0877 8.13649 25.2327 -3.48773 -179.228 11.8248 0.865187 4.54188e-006 -4.6773e-006 -1.09431 -1.68739 -25.2723 0.388272 -6.43784e-007 7.63522e-007 -0.690079 24.9875 74.3486 -26.8368 -8.13649 25.2327 3.48774 
52.3545 86.578 3.78584 0.365254 -2.14049 -2.32185 1.38033 -1.55231 1.04048 2.78511 0.920589 1.93823 2.76358 2.56415 1.89248 -22.0844 11.9758 -1.75671 19.4884 10.8307 -8.44874 49.2486 -5.74807 -2.97476 109.417 28.7933 5.1129 9.38627e-007 -4.54255e-007 -1.64869e-006 19.8727 0.149667 -0.169405 -1.08465e-006 -1.71403e-006 -3.06245 8.02935 -4.95144 0.697679 -75.3513 -8.20963 5.46593 -93.5042 26.2398 -22.9792 -1.14343e-005 6.88378e-007 -3.61443e-007 -17.7053 0.132346 -0.549171 6.00043e-006 3.84188e-006 3.02435 -8.02916 -4.95144 -0.697682 178.075 14.7204 -1.05894 180 7.01532e-015 178.86 176.027 24.167 -179.681 -2.2066e-006 -3.05657e-006 0.561307 -22.2819 70.6138 22.0911 8.13649 25.2327 -3.48773 -179.227 11.8035 0.860624 4.54188e-006 -4.6773e-006 -1.09431 -1.68935 -25.2674 0.387466 -6.43784e-007 7.63522e-007 -0.690079 24.9944 74.3526 -26.8433 -8.13649 25.2327 3.48774 
52.3466 86.5645 3.77886 0.365951 -2.15263 -2.33255 1.38095 -1.54979 1.04232 2.78706 0.925677 1.94179 2.76549 2.56924 1.896 -22.077 11.9714 -1.76185 19.4841 10.8223 -8.44937 49.2451 -5.75598 -2.98047 109.434 28.7588 5.00615 9.38627e-007 -4.54255e-007 -1.64869e-006 19.9116 0.149811 -0.138927 -1.08465e-006 -1.71403e-006 -3.06058 8.02935 -4.95144 0.697679 -75.3448 -8.20503 5.46375 -93.5165 26.2312 -22.953 -1.14343e-005 6.88378e-007 -3.61443e-007 -17.7239 0.132331 -0.5536 6.00043e-006 3.84188e-006 3.02418 -8.02916 -4.95144 -0.697682 178.075 14.7098 -1.06328 180 7.01532e-015 178.86 176.035 24.1717 -179.684 -2.2066e-006 -3.05657e-006 0.561303 -22.2787 70.6169 22.0945 8.13649 25.2327 -3.48773 -179.226 11.782 0.855966 4.54188e-006 -4.6773e-006 -1.09431 -1.69135 -25.2624 0.386636 -6.43784e-007 7.63522e-007 -0.690079 25.0014 74.3567 -26.85 -8.13649 25.2327 3.48774 
52.3486 86.5644 3.78879 0.366641 -2.16481 -2.34327 1.38158 -1.54726 1.04418 2.78901 0.930784 1.94535 2.76741 2.57434 1.89953 -22.0697 11.9671 -1.76701 19.4797 10.8138 -8.45001 49.2416 -5.76392 -2.98621 109.451 28.7242 4.89955 9.38627e-007 -4.54255e-007 -1.64869e-006 19.9506 0.149954 -0.108477 -1.08465e-006 -1.71403e-006 -3.05872 8.02935 -4.95144 0.697679 -75.3384 -8.20042 5.46156 -93.5289 26.2226 -22.9268 -1.14343e-005 6.88378e-007 -3.61443e-007 -17.7426 0.132316 -0.55804 6.00043e-006 3.84188e-006 3.02402 -8.02916 -4.95144 -0.697682 178.075 14.6992 -1.06764 180 7.01532e-015 178.86 176.042 24.1765 -179.687 -2.2066e-006 -3.05657e-006 0.561299 -22.2756 70.62 22.098 8.13649 25.2327 -3.48773 -179.225 11.7604 0.851285 4.54188e-006 -4.6773e-006 -1.09431 -1.69336 -25.2575 0.3858 -6.43784e-007 7.63522e-007 -0.690079 25.0086 74.3608 -26.8567 -8.13649 25.2327 3.48774 
52.3483 86.5643 3.78918 0.367332 -2.17691 -2.35396 1.3822 -1.54476 1.04602 2.79095 0.935855 1.94889 2.76932 2.57941 1.90304 -22.0623 11.9627 -1.77213 19.4754 10.8054 -8.45063 49.238 -5.77181 -2.9919 109.467 28.6896 4.79287 9.38627e-007 -4.54255e-007 -1.64869e-006 19.9895 0.150098 -0.0779709 -1.08465e-006 -1.71403e-006 -3.05685 8.02935 -4.95144 0.697679 -75.332 -8.19583 5.45938 -93.5412 26.2141 -22.9008 -1.14343e-005 6.88378e-007 -3.61443e-007 -17.7612 0.132301 -0.562456 6.00043e-006 3.84188e-006 3.02385 -8.02916 -4.95144 -0.697682 178.075 14.6886 -1.07196 180 7.01532e-015 178.86 176.05 24.1811 -179.69 -2.2066e-006 -3.05657e-006 0.561295 -22.2724 70.6231 22.1014 8.13649 25.2327 -3.48773 -179.224 11.7389 0.846652 4.54188e-006 -4.6773e-006 -1.09431 -1.69535 -25.2526 0.384976 -6.43784e-007 7.63522e-007 -0.690079 25.0156 74.3649 -26.8634 -8.13649 25.2327 3.48774 
52.3373 86.5598 3.78784 0.368037 -2.18882 -2.36458 1.38282 -1.54229 1.04782 2.79284 0.940836 1.95236 2.77118 2.58439 1.90647 -22.055 11.9584 -1.77718 19.4712 10.7971 -8.45121 49.2345 -5.77956 -2.9975 109.484 28.655 4.68586 9.38627e-007 -4.54255e-007 -1.64869e-006 20.0284 0.150243 -0.0473261 -1.08465e-006 -1.71403e-006 -3.05498 8.02935 -4.95144 0.697679 -75.3257 -8.19132 5.45724 -93.5533 26.2057 -22.875 -1.14343e-005 6.88378e-007 -3.61443e-007 -17.7795 0.132286 -0.566812 6.00043e-006 3.84188e-006 3.02368 -8.02916 -4.95144 -0.697682 178.075 14.6782 -1.07619 180 7.01532e-015 178.86 176.057 24.1856 -179.693 -2.2066e-006 -3.05657e-006 0.561292 -22.2692 70.626 22.1047 8.13649 25.2327 -3.48773 -179.223 11.7177 0.842139 4.54188e-006 -4.6773e-006 -1.09431 -1.6973 -25.2476 0.384183 -6.43784e-007 7.63522e-007 -0.690079 25.0224 74.3689 -26.8698 -8.13649 25.2327 3.48774 
52.3419 86.5739 3.78636 0.368766 -2.2004 -2.3751 1.38343 -1.5399 1.04957 2.79467 0.945675 1.95572 2.77298 2.58922 1.90981 -22.0478 11.9541 -1.78209 19.4672 10.7889 -8.4517 49.231 -5.78712 -3.00295 109.501 28.6206 4.57827 9.38627e-007 -4.54255e-007 -1.64869e-006 20.0672 0.15039 -0.0164592 -1.08465e-006 -1.71403e-006 -3.0531 8.02935 -4.95144 0.697679 -75.3195 -8.18692 5.45515 -93.5653 26.1977 -22.8497 -1.14343e-005 6.88378e-007 -3.61443e-007 -17.7974 0.132272 -0.571071 6.00043e-006 3.84188e-006 3.02351 -8.02916 -4.95144 -0.697682 178.075 14.6681 -1.08027 180 7.01532e-015 178.86 176.064 24.1898 -179.695 -2.2066e-006 -3.05657e-006 0.56129 -22.266 70.6288 22.1078 8.13649 25.2327 -3.48773 -179.222 11.6971 0.837818 4.54188e-006 -4.6773e-006 -1.09431 -1.69919 -25.2426 0.383438 -6.43784e-007 7.63522e-007 -0.690079 25.0289 74.3726 -26.8759 -8.13649 25.2327 3.48774 
52.3453 86.5676 3.78485 0.36953 -2.21155 -2.38546 1.38402 -1.5376 1.05124 2.79641 0.950318 1.95894 2.77468 2.59386 1.91299 -22.0408 11.9497 -1.78684 19.4634 10.781 -8.4521 49.2276 -5.79439 -3.00819 109.518 28.5863 4.46987 9.38627e-007 -4.54255e-007 -1.64869e-006 20.1059 0.150539 0.0147133 -1.08465e-006 -1.71403e-006 -3.05121 8.02935 -4.95144 0.697679 -75.3134 -8.18267 5.45313 -93.577 26.1901 -22.8251 -1.14343e-005 6.88378e-007 -3.61443e-007 -17.8148 0.132259 -0.575198 6.00043e-006 3.84188e-006 3.02335 -8.02916 -4.95144 -0.697682 178.075 14.6583 -1.08415 180 7.01532e-015 178.86 176.071 24.1936 -179.698 -2.2066e-006 -3.05657e-006 0.561288 -22.2629 70.6312 22.1105 8.13649 25.2327 -3.48773 -179.221 11.6772 0.833759 4.54188e-006 -4.6773e-006 -1.09431 -1.70099 -25.2377 0.382761 -6.43784e-007 7.63522e-007 -0.690079 25.0349 74.3761 -26.8816 -8.13649 25.2327 3.48774 
52.348 86.5697 3.79367 0.37034 -2.22215 -2.39563 1.3846 -1.53543 1.05282 2.79803 0.954711 1.96196 2.77628 2.59825 1.91599 -22.0338 11.9454 -1.79136 19.4599 10.7732 -8.45236 49.2242 -5.8013 -3.01316 109.535 28.5523 4.36042 9.38627e-007 -4.54255e-007 -1.64869e-006 20.1445 0.15069 0.0462746 -1.08465e-006 -1.71403e-006 -3.0493 8.02935 -4.95144 0.697679 -75.3077 -8.17861 5.4512 -93.5884 26.1832 -22.8014 -1.14343e-005 6.88378e-007 -3.61443e-007 -17.8315 0.132246 -0.579155 6.00043e-006 3.84188e-006 3.02319 -8.02916 -4.95144 -0.697682 178.076 14.6489 -1.08778 180 7.01532e-015 178.86 176.078 24.1969 -179.7 -2.2066e-006 -3.05657e-006 0.561288 -22.2597 70.6333 22.1128 8.13649 25.2327 -3.48773 -179.221 11.6582 0.830033 4.54188e-006 -4.6773e-006 -1.09431 -1.70267 -25.2327 0.38217 -6.43784e-007 7.63522e-007 -0.690079 25.0404 74.3792 -26.8867 -8.13649 25.2327 3.48774 
52.3533 86.5723 3.79083 0.371207 -2.23208 -2.40557 1.38515 -1.53341 1.05428 2.79951 0.958801 1.96476 2.77773 2.60234 1.91876 -22.0271 11.9411 -1.79562 19.4568 10.7658 -8.45246 49.2208 -5.80778 -3.01781 109.552 28.5187 4.24968 9.38627e-007 -4.54255e-007 -1.64869e-006 20.183 0.150845 0.0783081 -1.08465e-006 -1.71403e-006 -3.04738 8.02935 -4.95144 0.697679 -75.3021 -8.1748 5.44939 -93.5993 26.177 -22.7787 -1.14343e-005 6.88378e-007 -3.61443e-007 -17.8473 0.132235 -0.582907 6.00043e-006 3.84188e-006 3.02303 -8.02916 -4.95144 -0.697682 178.075 14.64 -1.0911 180 7.01532e-015 178.86 176.083 24.1995 -179.703 -2.2066e-006 -3.05657e-006 0.561289 -22.2565 70.6348 22.1146 8.13649 25.2327 -3.48773 -179.221 11.6404 0.826713 4.54188e-006 -4.6773e-006 -1.09431 -1.70422 -25.2276 0.381682 -6.43784e-007 7.63522e-007 -0.690079 25.0451 74.3818 -26.8911 -8.13649 25.2327 3.48774 
52.3518 86.5822 3.79239 0.372141 -2.24121 -2.41524 1.38568 -1.53156 1.05559 2.80083 0.962534 1.96729 2.77903 2.60607 1.92127 -22.0205 11.9368 -1.79956 19.4541 10.7587 -8.45237 49.2175 -5.81374 -3.02208 109.57 28.4854 4.13739 9.38627e-007 -4.54255e-007 -1.64869e-006 20.2212 0.151005 0.110897 -1.08465e-006 -1.71403e-006 -3.04544 8.02935 -4.95144 0.697679 -75.297 -8.17126 5.4477 -93.6097 26.1716 -22.7572 -1.14343e-005 6.88378e-007 -3.61443e-007 -17.8621 0.132225 -0.586418 6.00043e-006 3.84188e-006 3.02287 -8.02916 -4.95144 -0.697682 178.075 14.6318 -1.09405 180 7.01532e-015 178.86 176.089 24.2015 -179.705 -2.2066e-006 -3.05657e-006 0.561292 -22.2534 70.6359 22.1159 8.13649 25.2327 -3.48773 -179.221 11.6238 0.823868 4.54188e-006 -4.6773e-006 -1.09431 -1.7056 -25.2226 0.381317 -6.43784e-007 7.63522e-007 -0.690079 25.0489 74.384 -26.8946 -8.13649 25.2327 3.48774 
